<svg xmlns="http://www.w3.org/2000/svg" viewBox="0 0 1280 800" font-family="Segoe UI, sans-serif">
  <!-- ============================================================= -->
  <!-- D3 — Energy Allocation Panel  (wireframe mockup)              -->
  <!-- ============================================================= -->

  <!-- white background -->
  <rect x="0" y="0" width="1280" height="800" fill="#ffffff"/>

  <defs>
    <style>
      .ttl  { font-weight: 800; fill: #334155; }
      .sub  { font-size: 10.5px; fill: #94a3b8; }
      .lbl  { font-size: 12.5px; font-weight: 600; fill: #334155; }
      .grp  { font-size: 10.5px; font-weight: 700; fill: #64748b; letter-spacing: 1px; }
      .col  { font-size: 9.5px;  font-weight: 700; fill: #94a3b8; letter-spacing: 0.6px; }
      .val  { font-size: 12px;   font-weight: 700; fill: #334155; }
      .badge{ font-size: 9px;    font-weight: 700; }
      .cost { font-size: 10px;   fill: #94a3b8; }
      .cap  { font-size: 10px;   fill: #64748b; }
      .msg  { font-size: 10.5px; fill: #475569; }
    </style>
  </defs>

  <!-- gutter flow arrows: SOURCES -> ROUTING -> READOUT -->
  <polygon points="306,373 320,381 306,389" fill="#94a3b8"/>
  <polygon points="941,373 955,381 941,389" fill="#94a3b8"/>

  <!-- ============================================================= -->
  <!-- HEADER BAR  (#hdr)                                            -->
  <!-- ============================================================= -->
  <rect x="24" y="24" width="1232" height="60" rx="10" fill="#ffffff" stroke="#cbd5e1"/>
  <rect x="24" y="24" width="6" height="60" rx="3" fill="#C74634"/>

  <!-- ship tabs -->
  <text x="40" y="40" class="col">SHIPS</text>
  <!-- tab 1 active -->
  <rect x="40" y="42" width="150" height="34" rx="7" fill="#eff6ff" stroke="#2563eb"/>
  <circle cx="56" cy="54" r="5" fill="#16a34a"/>
  <text x="68" y="56" class="lbl" font-size="11.5">U.S.S. Reliant</text>
  <text x="68" y="69" class="sub" font-size="9">Heavy Cruiser · CA</text>
  <!-- tab 2 -->
  <rect x="198" y="42" width="138" height="34" rx="7" fill="#ffffff" stroke="#cbd5e1"/>
  <circle cx="214" cy="54" r="5" fill="#f59e0b"/>
  <text x="226" y="56" class="lbl" font-size="11.5">U.S.S. Hood</text>
  <text x="226" y="69" class="sub" font-size="9">Frigate · FF</text>
  <!-- tab 3 locked -->
  <rect x="344" y="42" width="150" height="34" rx="7" fill="#f8fafc" stroke="#cbd5e1"/>
  <g transform="translate(360,49)" stroke="#16a34a" fill="#16a34a">
    <rect x="0" y="4" width="9" height="7" rx="1.5" stroke="none"/>
    <path d="M1.7 4 V2.4 A2.8 2.8 0 0 1 7.3 2.4 V4" fill="none" stroke-width="1.4"/>
  </g>
  <text x="374" y="56" class="lbl" font-size="11.5" fill="#64748b">U.S.S. Saratoga</text>
  <text x="374" y="69" class="sub" font-size="9">Destroyer · DD · SEALED</text>

  <!-- turn + countdown -->
  <text x="612" y="50" class="ttl" font-size="17" text-anchor="middle">TURN 7</text>
  <text x="612" y="65" class="sub" text-anchor="middle">ENERGY ALLOCATION · PHASE 1</text>
  <rect x="700" y="40" width="92" height="28" rx="14" fill="#f1f5f9" stroke="#cbd5e1"/>
  <circle cx="717" cy="54" r="7" fill="none" stroke="#334155" stroke-width="1.4"/>
  <line x1="717" y1="54" x2="717" y2="50" stroke="#334155" stroke-width="1.4"/>
  <line x1="717" y1="54" x2="720" y2="56" stroke="#334155" stroke-width="1.4"/>
  <text x="745" y="58" class="val" font-size="13">02:14</text>

  <!-- ready indicator -->
  <text x="1112" y="46" class="sub" font-size="11" font-weight="700" fill="#64748b" text-anchor="end">1 of 2 sides locked</text>
  <text x="1112" y="62" class="sub" font-size="11" font-weight="700" fill="#64748b" text-anchor="end">2 of 3 ships ready</text>
  <!-- lock all -->
  <rect x="1124" y="40" width="120" height="28" rx="6" fill="#2563eb"/>
  <text x="1184" y="58" font-size="12" font-weight="800" fill="#ffffff" text-anchor="middle">LOCK ALL</text>

  <!-- ============================================================= -->
  <!-- LEFT RAIL — SOURCE POOL  (#pool)                              -->
  <!-- ============================================================= -->
  <rect x="24" y="100" width="280" height="560" rx="10" fill="#ffffff" stroke="#cbd5e1"/>
  <rect x="40" y="112" width="5" height="18" rx="2" fill="#2563eb"/>
  <text x="54" y="127" class="ttl" font-size="14">SOURCE POOL</text>
  <text x="54" y="143" class="sub">Available power · drag tokens out (H2–H6)</text>

  <!-- remaining-to-allocate crown -->
  <rect x="40" y="152" width="248" height="64" rx="10" fill="#fff7ed" stroke="#fdba74"/>
  <text x="62" y="195" font-size="34" font-weight="800" fill="#d97706" text-anchor="middle">6</text>
  <text x="92" y="178" font-size="11" font-weight="700" fill="#334155">REMAINING TO ALLOCATE</text>
  <text x="92" y="194" class="sub">surplus of 42 produced</text>
  <text x="92" y="208" font-size="9.5" font-weight="700" fill="#d97706">▲ not yet routed</text>

  <!-- helper for source chip: name / cite / avail line / bar -->
  <!-- Warp -->
  <g>
    <rect x="40" y="226" width="248" height="54" rx="8" fill="#f8fafc" stroke="#e2e8f0"/>
    <text x="52" y="245" class="lbl">Warp Engine</text>
    <rect x="234" y="232" width="46" height="16" rx="8" fill="#eff6ff" stroke="#bfdbfe"/>
    <text x="257" y="244" class="badge" fill="#2563eb" text-anchor="middle">H2.0</text>
    <text x="52" y="262" class="sub">available 30 · routed 22 · left 8</text>
    <rect x="52" y="267" width="224" height="6" rx="3" fill="#e2e8f0"/>
    <rect x="52" y="267" width="164" height="6" rx="3" fill="#2563eb"/>
  </g>
  <!-- Impulse -->
  <g>
    <rect x="40" y="288" width="248" height="54" rx="8" fill="#f8fafc" stroke="#e2e8f0"/>
    <text x="52" y="307" class="lbl">Impulse</text>
    <rect x="234" y="294" width="46" height="16" rx="8" fill="#eff6ff" stroke="#bfdbfe"/>
    <text x="257" y="306" class="badge" fill="#2563eb" text-anchor="middle">H3.0</text>
    <text x="52" y="324" class="sub">available 8 · routed 8 · left 0</text>
    <rect x="52" y="329" width="224" height="6" rx="3" fill="#e2e8f0"/>
    <rect x="52" y="329" width="224" height="6" rx="3" fill="#2563eb"/>
  </g>
  <!-- APR -->
  <g>
    <rect x="40" y="350" width="248" height="54" rx="8" fill="#f8fafc" stroke="#e2e8f0"/>
    <text x="52" y="369" class="lbl">APR  (reactor)</text>
    <rect x="234" y="356" width="46" height="16" rx="8" fill="#eff6ff" stroke="#bfdbfe"/>
    <text x="257" y="368" class="badge" fill="#2563eb" text-anchor="middle">H4.0</text>
    <text x="52" y="386" class="sub">available 4 · routed 4 · left 0</text>
    <rect x="52" y="391" width="224" height="6" rx="3" fill="#e2e8f0"/>
    <rect x="52" y="391" width="224" height="6" rx="3" fill="#2563eb"/>
  </g>
  <!-- Batteries (pips) -->
  <g>
    <rect x="40" y="412" width="248" height="54" rx="8" fill="#f8fafc" stroke="#e2e8f0"/>
    <text x="52" y="431" class="lbl">Batteries</text>
    <rect x="234" y="418" width="46" height="16" rx="8" fill="#eff6ff" stroke="#bfdbfe"/>
    <text x="257" y="430" class="badge" fill="#2563eb" text-anchor="middle">H5.0</text>
    <text x="52" y="447" class="sub">reserve store · stored 6 / cap 8</text>
    <!-- pips: 6 filled, 1 hollow, 1 destroyed -->
    <circle cx="58"  cy="457" r="5" fill="#16a34a"/>
    <circle cx="82"  cy="457" r="5" fill="#16a34a"/>
    <circle cx="106" cy="457" r="5" fill="#16a34a"/>
    <circle cx="130" cy="457" r="5" fill="#16a34a"/>
    <circle cx="154" cy="457" r="5" fill="#16a34a"/>
    <circle cx="178" cy="457" r="5" fill="#16a34a"/>
    <circle cx="202" cy="457" r="5" fill="#ffffff" stroke="#94a3b8" stroke-width="1.3"/>
    <circle cx="226" cy="457" r="5" fill="#ffffff" stroke="#C74634" stroke-width="1.3"/>
    <path d="M223 454 l6 6 M229 454 l-6 6" stroke="#C74634" stroke-width="1.3"/>
  </g>
  <!-- Phaser Capacitor / Reserve carry-over -->
  <g>
    <rect x="40" y="474" width="248" height="54" rx="8" fill="#f8fafc" stroke="#e2e8f0"/>
    <text x="52" y="493" class="lbl">Phaser Cap / Reserve</text>
    <rect x="234" y="480" width="46" height="16" rx="8" fill="#eff6ff" stroke="#bfdbfe"/>
    <text x="257" y="492" class="badge" fill="#2563eb" text-anchor="middle">H6.0</text>
    <text x="52" y="510" class="sub">carry-over store 2 / cap 6</text>
    <rect x="52" y="515" width="224" height="6" rx="3" fill="#e2e8f0"/>
    <rect x="52" y="515" width="75" height="6" rx="3" fill="#2563eb"/>
  </g>

  <text x="52" y="552" class="sub">Total produced 42 + battery reserve store</text>

  <!-- ============================================================= -->
  <!-- CENTER — SINK BOARD  (#sinks)                                 -->
  <!-- ============================================================= -->
  <rect x="320" y="100" width="620" height="560" rx="10" fill="#ffffff" stroke="#cbd5e1"/>
  <rect x="336" y="112" width="5" height="18" rx="2" fill="#334155"/>
  <text x="350" y="127" class="ttl" font-size="14">SINK BOARD — ENERGY ROUTING</text>
  <text x="350" y="143" class="sub">Distribute power to sinks · drag token · slider · stepper · numeric</text>

  <!-- column headers -->
  <text x="346" y="158" class="col">SINK</text>
  <text x="500" y="158" class="col" text-anchor="middle">COST</text>
  <text x="655" y="158" class="col" text-anchor="middle">ROUTING (drag / slider)</text>
  <text x="799" y="158" class="col" text-anchor="middle">VAL</text>
  <text x="847" y="158" class="col" text-anchor="middle">SRC</text>
  <text x="898" y="158" class="col" text-anchor="middle">RULE</text>

  <!-- ===== group: MANDATORY ===== -->
  <rect x="340" y="170" width="7" height="7" rx="1.5" fill="#64748b"/>
  <text x="352" y="176" class="grp">MANDATORY</text>
  <!-- Life Support (locked) -->
  <rect x="336" y="184" width="584" height="29" rx="6" fill="#f1f5f9" stroke="#e2e8f0"/>
  <g transform="translate(346,191)" fill="#64748b" stroke="#64748b">
    <rect x="0" y="4" width="9" height="7" rx="1.5" stroke="none"/>
    <path d="M1.7 4 V2.4 A2.8 2.8 0 0 1 7.3 2.4 V4" fill="none" stroke-width="1.3"/>
  </g>
  <text x="362" y="203" class="lbl" fill="#64748b">Life Support</text>
  <text x="500" y="203" class="cost" text-anchor="middle">force</text>
  <rect x="540" y="196" width="230" height="6" rx="3" fill="#cbd5e1"/>
  <rect x="540" y="196" width="230" height="6" rx="3" fill="#94a3b8"/>
  <rect x="782" y="189" width="34" height="19" rx="4" fill="#e2e8f0" stroke="#cbd5e1"/>
  <text x="799" y="203" class="val">3</text>
  <rect x="824" y="190" width="46" height="17" rx="8" fill="#f1f5f9" stroke="#cbd5e1"/>
  <text x="847" y="202" class="badge" fill="#475569" text-anchor="middle">ANY</text>
  <rect x="878" y="190" width="40" height="17" rx="8" fill="#eff6ff" stroke="#bfdbfe"/>
  <text x="898" y="202" class="badge" fill="#2563eb" text-anchor="middle">B3.3</text>

  <!-- ===== group: MOVEMENT ===== -->
  <rect x="340" y="232" width="7" height="7" rx="1.5" fill="#2563eb"/>
  <text x="352" y="238" class="grp">MOVEMENT</text>
  <!-- Movement (Warp) — tall -->
  <rect x="336" y="246" width="584" height="38" rx="6" fill="#ffffff" stroke="#e2e8f0"/>
  <text x="346" y="263" class="lbl">Movement (Warp)</text>
  <text x="500" y="263" class="cost" text-anchor="middle">1 / MP</text>
  <rect x="540" y="258" width="230" height="6" rx="3" fill="#e2e8f0"/>
  <rect x="540" y="258" width="92"  height="6" rx="3" fill="#2563eb"/>
  <circle cx="632" cy="261" r="6" fill="#ffffff" stroke="#2563eb" stroke-width="2"/>
  <rect x="782" y="251" width="34" height="20" rx="4" fill="#f1f5f9" stroke="#cbd5e1"/>
  <text x="799" y="265" class="val">12</text>
  <rect x="824" y="252" width="46" height="17" rx="8" fill="#eff6ff" stroke="#bfdbfe"/>
  <text x="847" y="264" class="badge" fill="#2563eb" text-anchor="middle">WARP</text>
  <rect x="878" y="252" width="40" height="17" rx="8" fill="#eff6ff" stroke="#bfdbfe"/>
  <text x="898" y="264" class="badge" fill="#2563eb" text-anchor="middle">H7.45</text>
  <text x="346" y="279" class="cap" fill="#16a34a">Live readout: = 12 hexes · cap 30 MP (C2.112)</text>
  <!-- Impulse -> Move (toggle) -->
  <rect x="336" y="292" width="584" height="29" rx="6" fill="#ffffff" stroke="#e2e8f0"/>
  <text x="346" y="311" class="lbl">Impulse → Move</text>
  <text x="500" y="311" class="cost" text-anchor="middle">1</text>
  <rect x="540" y="297" width="42" height="18" rx="9" fill="#16a34a"/>
  <circle cx="573" cy="306" r="7" fill="#ffffff"/>
  <text x="592" y="311" class="cap">enabled · limited to 1 pt (H3.4)</text>
  <rect x="782" y="297" width="34" height="19" rx="4" fill="#f1f5f9" stroke="#cbd5e1"/>
  <text x="799" y="311" class="val">1</text>
  <rect x="824" y="298" width="46" height="17" rx="8" fill="#eef2ff" stroke="#c7d2fe"/>
  <text x="847" y="310" class="badge" fill="#4338ca" text-anchor="middle">IMP</text>
  <rect x="878" y="298" width="40" height="17" rx="8" fill="#eff6ff" stroke="#bfdbfe"/>
  <text x="898" y="310" class="badge" fill="#2563eb" text-anchor="middle">H3.4</text>

  <!-- ===== group: WEAPONS ===== -->
  <rect x="340" y="327" width="7" height="7" rx="1.5" fill="#C74634"/>
  <text x="352" y="333" class="grp">WEAPONS</text>
  <!-- Phaser Capacitor — tall -->
  <rect x="336" y="341" width="584" height="38" rx="6" fill="#ffffff" stroke="#e2e8f0"/>
  <text x="346" y="358" class="lbl">Phaser Capacitor</text>
  <text x="500" y="358" class="cost" text-anchor="middle">1</text>
  <rect x="540" y="353" width="230" height="6" rx="3" fill="#e2e8f0"/>
  <rect x="540" y="353" width="153" height="6" rx="3" fill="#2563eb"/>
  <circle cx="693" cy="356" r="6" fill="#ffffff" stroke="#2563eb" stroke-width="2"/>
  <rect x="782" y="346" width="34" height="20" rx="4" fill="#f1f5f9" stroke="#cbd5e1"/>
  <text x="799" y="360" class="val">4</text>
  <rect x="824" y="347" width="46" height="17" rx="8" fill="#f1f5f9" stroke="#cbd5e1"/>
  <text x="847" y="359" class="badge" fill="#475569" text-anchor="middle">ANY</text>
  <rect x="878" y="347" width="40" height="17" rx="8" fill="#eff6ff" stroke="#bfdbfe"/>
  <text x="898" y="359" class="badge" fill="#2563eb" text-anchor="middle">H6.21</text>
  <text x="346" y="374" class="cap">Fill-to-capacity meter: 4 / 6 stored · refuses tokens past room</text>
  <!-- Disruptor Arming — tall -->
  <rect x="336" y="387" width="584" height="38" rx="6" fill="#ffffff" stroke="#e2e8f0"/>
  <text x="346" y="404" class="lbl">Disruptor Arming</text>
  <text x="500" y="404" class="cost" text-anchor="middle">2</text>
  <rect x="540" y="399" width="230" height="6" rx="3" fill="#e2e8f0"/>
  <rect x="540" y="399" width="115" height="6" rx="3" fill="#C74634"/>
  <circle cx="655" cy="402" r="6" fill="#ffffff" stroke="#C74634" stroke-width="2"/>
  <rect x="782" y="392" width="34" height="20" rx="4" fill="#f1f5f9" stroke="#cbd5e1"/>
  <text x="799" y="406" class="val">4</text>
  <rect x="824" y="393" width="46" height="17" rx="8" fill="#eff6ff" stroke="#bfdbfe"/>
  <text x="847" y="405" class="badge" fill="#2563eb" text-anchor="middle">WARP</text>
  <rect x="878" y="393" width="40" height="17" rx="8" fill="#eff6ff" stroke="#bfdbfe"/>
  <text x="898" y="405" class="badge" fill="#2563eb" text-anchor="middle">E4.21</text>
  <text x="346" y="420" class="cap">Multi-turn arming progress · Turn 2 of 3</text>

  <!-- ===== group: DEFENSE ===== -->
  <rect x="340" y="433" width="7" height="7" rx="1.5" fill="#16a34a"/>
  <text x="352" y="439" class="grp">DEFENSE</text>
  <!-- Shields (min/full segmented) -->
  <rect x="336" y="447" width="584" height="29" rx="6" fill="#ffffff" stroke="#e2e8f0"/>
  <text x="346" y="466" class="lbl">Shields</text>
  <text x="500" y="466" class="cost" text-anchor="middle">½</text>
  <rect x="540" y="452" width="60" height="19" rx="5" fill="#f1f5f9" stroke="#cbd5e1"/>
  <text x="570" y="465" class="badge" fill="#64748b" text-anchor="middle">MIN</text>
  <rect x="604" y="452" width="60" height="19" rx="5" fill="#16a34a"/>
  <text x="634" y="465" class="badge" fill="#ffffff" text-anchor="middle">FULL</text>
  <rect x="782" y="452" width="34" height="19" rx="4" fill="#f1f5f9" stroke="#cbd5e1"/>
  <text x="799" y="466" class="val">6</text>
  <rect x="824" y="453" width="46" height="17" rx="8" fill="#f1f5f9" stroke="#cbd5e1"/>
  <text x="847" y="465" class="badge" fill="#475569" text-anchor="middle">ANY</text>
  <rect x="878" y="453" width="40" height="17" rx="8" fill="#eff6ff" stroke="#bfdbfe"/>
  <text x="898" y="465" class="badge" fill="#2563eb" text-anchor="middle">D3.32</text>
  <!-- General Reinforcement -->
  <rect x="336" y="481" width="584" height="29" rx="6" fill="#ffffff" stroke="#e2e8f0"/>
  <text x="346" y="500" class="lbl">General Reinf.</text>
  <text x="500" y="500" class="cost" text-anchor="middle">1</text>
  <rect x="540" y="495" width="230" height="6" rx="3" fill="#e2e8f0"/>
  <rect x="540" y="495" width="77"  height="6" rx="3" fill="#16a34a"/>
  <circle cx="617" cy="498" r="6" fill="#ffffff" stroke="#16a34a" stroke-width="2"/>
  <rect x="782" y="490" width="34" height="19" rx="4" fill="#f1f5f9" stroke="#cbd5e1"/>
  <text x="799" y="504" class="val">2</text>
  <rect x="824" y="491" width="46" height="17" rx="8" fill="#f1f5f9" stroke="#cbd5e1"/>
  <text x="847" y="503" class="badge" fill="#475569" text-anchor="middle">ANY</text>
  <rect x="878" y="491" width="40" height="17" rx="8" fill="#eff6ff" stroke="#bfdbfe"/>
  <text x="898" y="503" class="badge" fill="#2563eb" text-anchor="middle">D3.341</text>
  <!-- Specific Reinforcement -->
  <rect x="336" y="515" width="584" height="29" rx="6" fill="#ffffff" stroke="#e2e8f0"/>
  <text x="346" y="534" class="lbl">Specific Reinf. (#1)</text>
  <text x="500" y="534" class="cost" text-anchor="middle">1</text>
  <rect x="540" y="529" width="230" height="6" rx="3" fill="#e2e8f0"/>
  <rect x="540" y="529" width="58"  height="6" rx="3" fill="#16a34a"/>
  <circle cx="598" cy="532" r="6" fill="#ffffff" stroke="#16a34a" stroke-width="2"/>
  <rect x="782" y="524" width="34" height="19" rx="4" fill="#f1f5f9" stroke="#cbd5e1"/>
  <text x="799" y="538" class="val">1</text>
  <rect x="824" y="525" width="46" height="17" rx="8" fill="#f1f5f9" stroke="#cbd5e1"/>
  <text x="847" y="537" class="badge" fill="#475569" text-anchor="middle">ANY</text>
  <rect x="878" y="525" width="40" height="17" rx="8" fill="#eff6ff" stroke="#bfdbfe"/>
  <text x="898" y="537" class="badge" fill="#2563eb" text-anchor="middle">D3.342</text>

  <!-- ===== group: SYSTEMS / SPECIAL ===== -->
  <rect x="340" y="555" width="7" height="7" rx="1.5" fill="#334155"/>
  <text x="352" y="561" class="grp">SYSTEMS / SPECIAL</text>
  <!-- Fire Control (segmented 0 / ½ / 1) -->
  <rect x="336" y="569" width="584" height="29" rx="6" fill="#ffffff" stroke="#e2e8f0"/>
  <text x="346" y="588" class="lbl">Fire Control</text>
  <text x="500" y="588" class="cost" text-anchor="middle">0–1</text>
  <rect x="540" y="574" width="44" height="19" rx="5" fill="#f1f5f9" stroke="#cbd5e1"/>
  <text x="562" y="587" class="badge" fill="#64748b" text-anchor="middle">0</text>
  <rect x="588" y="574" width="44" height="19" rx="5" fill="#f1f5f9" stroke="#cbd5e1"/>
  <text x="610" y="587" class="badge" fill="#64748b" text-anchor="middle">½</text>
  <rect x="636" y="574" width="44" height="19" rx="5" fill="#2563eb"/>
  <text x="658" y="587" class="badge" fill="#ffffff" text-anchor="middle">1</text>
  <rect x="782" y="574" width="34" height="19" rx="4" fill="#f1f5f9" stroke="#cbd5e1"/>
  <text x="799" y="588" class="val">1</text>
  <rect x="824" y="575" width="46" height="17" rx="8" fill="#f1f5f9" stroke="#cbd5e1"/>
  <text x="847" y="587" class="badge" fill="#475569" text-anchor="middle">ANY</text>
  <rect x="878" y="575" width="40" height="17" rx="8" fill="#eff6ff" stroke="#bfdbfe"/>
  <text x="898" y="587" class="badge" fill="#2563eb" text-anchor="middle">D6.6</text>
  <!-- Special Systems -->
  <rect x="336" y="603" width="584" height="29" rx="6" fill="#ffffff" stroke="#e2e8f0"/>
  <text x="346" y="622" class="lbl">Special Systems</text>
  <text x="500" y="622" class="cost" text-anchor="middle">1</text>
  <rect x="540" y="617" width="230" height="6" rx="3" fill="#e2e8f0"/>
  <rect x="540" y="617" width="115" height="6" rx="3" fill="#334155"/>
  <circle cx="655" cy="620" r="6" fill="#ffffff" stroke="#334155" stroke-width="2"/>
  <rect x="782" y="612" width="34" height="19" rx="4" fill="#f1f5f9" stroke="#cbd5e1"/>
  <text x="799" y="626" class="val">2</text>
  <rect x="824" y="613" width="46" height="17" rx="8" fill="#f1f5f9" stroke="#cbd5e1"/>
  <text x="847" y="625" class="badge" fill="#475569" text-anchor="middle">ANY</text>
  <rect x="878" y="613" width="40" height="17" rx="8" fill="#eff6ff" stroke="#bfdbfe"/>
  <text x="898" y="625" class="badge" fill="#2563eb" text-anchor="middle">H7.0</text>

  <!-- ============================================================= -->
  <!-- RIGHT RAIL — BALANCE & STATUS  (#balance)                     -->
  <!-- ============================================================= -->
  <rect x="956" y="100" width="300" height="560" rx="10" fill="#ffffff" stroke="#cbd5e1"/>
  <rect x="972" y="112" width="5" height="18" rx="2" fill="#16a34a"/>
  <text x="986" y="127" class="ttl" font-size="14">BALANCE &amp; STATUS</text>
  <text x="986" y="143" class="sub">Live referee preview · advisory only</text>

  <!-- status pill -->
  <rect x="972" y="150" width="268" height="34" rx="8" fill="#fffbeb" stroke="#f59e0b"/>
  <circle cx="992" cy="167" r="6" fill="#f59e0b"/>
  <text x="1108" y="172" font-size="14" font-weight="800" fill="#b45309" text-anchor="middle">UNDER-ALLOCATED</text>

  <!-- balance meter -->
  <text x="972" y="206" font-size="11" font-weight="700" fill="#334155">Balance meter — Allocated vs Available</text>
  <rect x="972" y="214" width="268" height="18" rx="5" fill="#e2e8f0"/>
  <rect x="972" y="214" width="230" height="18" rx="5" fill="#f59e0b"/>
  <text x="972"  y="250" class="sub" font-size="11">Produced 42</text>
  <text x="1106" y="250" class="sub" font-size="11" text-anchor="middle">Allocated 36</text>
  <text x="1240" y="250" class="sub" font-size="11" text-anchor="end">Remaining 6</text>

  <!-- balanced? check -->
  <rect x="972" y="262" width="268" height="30" rx="6" fill="#f8fafc" stroke="#e2e8f0"/>
  <polygon points="990,285 983,272 997,272" fill="#f59e0b"/>
  <text x="987" y="285" font-size="9" font-weight="800" fill="#ffffff">!</text>
  <text x="1006" y="282" class="msg" font-size="10.5">Balanced? No — under-allocation is legal (B3.4)</text>

  <!-- messages list -->
  <text x="972" y="316" font-size="11" font-weight="700" fill="#334155">Messages</text>
  <rect x="972" y="322" width="268" height="150" rx="8" fill="#ffffff" stroke="#e2e8f0"/>

  <!-- msg 1: warning under-alloc + fix link -->
  <polygon points="988,342 981,329 995,329" fill="#f59e0b"/>
  <text x="985" y="342" font-size="9" font-weight="800" fill="#ffffff">!</text>
  <text x="1004" y="338" class="msg">Under-allocated by 6 — surplus is</text>
  <text x="1004" y="351" class="msg">not reserve.
    <tspan fill="#2563eb" text-decoration="underline"> [Route 6 → Batteries]</tspan>
    <tspan class="sub" font-size="9"> B3.4</tspan>
  </text>

  <!-- msg 2: warning capacitor -->
  <polygon points="988,375 981,362 995,362" fill="#f59e0b"/>
  <text x="985" y="375" font-size="9" font-weight="800" fill="#ffffff">!</text>
  <text x="1004" y="375" class="msg">Phaser capacitor not full (4 / 6)
    <tspan class="sub" font-size="9"> H6.21</tspan>
  </text>

  <!-- msg 3: ok impulse -->
  <path d="M982 398 l4 4 l7 -8" fill="none" stroke="#16a34a" stroke-width="2"/>
  <text x="1004" y="402" class="msg">Impulse-to-move within cap (1)
    <tspan class="sub" font-size="9"> H3.4</tspan>
  </text>

  <!-- msg 4: ok life support -->
  <path d="M982 424 l4 4 l7 -8" fill="none" stroke="#16a34a" stroke-width="2"/>
  <text x="1004" y="428" class="msg">Life Support force-filled (3)
    <tspan class="sub" font-size="9"> B3.3</tspan>
  </text>

  <!-- msg 5: info typed-source -->
  <circle cx="987" cy="450" r="6" fill="#2563eb"/>
  <text x="987" y="453" font-size="9" font-weight="800" fill="#ffffff" text-anchor="middle">i</text>
  <text x="1004" y="454" class="msg">Typed-source gating active (H7.45)</text>

  <!-- templates / actions -->
  <rect x="972" y="486" width="176" height="30" rx="6" fill="#ffffff" stroke="#cbd5e1"/>
  <text x="984" y="505" class="lbl" font-size="11.5">Apply Template</text>
  <polygon points="1130,499 1140,499 1135,505" fill="#64748b"/>
  <rect x="1156" y="486" width="84" height="30" rx="6" fill="#ffffff" stroke="#cbd5e1"/>
  <text x="1198" y="505" class="lbl" font-size="11.5" text-anchor="middle">Save</text>

  <rect x="972" y="524" width="176" height="30" rx="6" fill="#ffffff" stroke="#cbd5e1"/>
  <text x="1060" y="543" class="lbl" font-size="11.5" text-anchor="middle">Copy Last Turn</text>
  <rect x="1156" y="524" width="84" height="30" rx="6" fill="#fef2f2" stroke="#fca5a5"/>
  <text x="1198" y="543" class="badge" fill="#C74634" text-anchor="middle">2 clamped</text>

  <rect x="972" y="562" width="268" height="28" rx="6" fill="#ffffff" stroke="#cbd5e1"/>
  <text x="1106" y="580" class="lbl" font-size="11.5" text-anchor="middle">Reset Draft</text>

  <!-- per-ship lock (primary) -->
  <rect x="972" y="598" width="268" height="42" rx="8" fill="#2563eb"/>
  <g transform="translate(1052,610)" fill="#ffffff" stroke="#ffffff">
    <rect x="0" y="5" width="11" height="9" rx="1.6" stroke="none"/>
    <path d="M2 5 V3 A3.4 3.4 0 0 1 9 3 V5" fill="none" stroke-width="1.6"/>
  </g>
  <text x="1078" y="624" font-size="13" font-weight="800" fill="#ffffff">LOCK THIS SHIP</text>

  <!-- ============================================================= -->
  <!-- RESERVE DRAWER  (#reserve)  — collapsed                       -->
  <!-- ============================================================= -->
  <rect x="24" y="672" width="1232" height="44" rx="8" fill="#f1f5f9" stroke="#cbd5e1" stroke-dasharray="5 4"/>
  <polygon points="44,690 44,702 53,696" fill="#94a3b8"/>
  <text x="64" y="700" class="ttl" font-size="12" fill="#64748b">RESERVE DRAWER</text>
  <text x="196" y="700" class="sub">collapsed — opens during Impulse Procedure for mid-turn discharge / transfer (H7.11 · H7.131)</text>
  <text x="940" y="700" class="sub" text-anchor="end">shared with D5 / D6 combat screens</text>
  <rect x="1160" y="682" width="84" height="24" rx="6" fill="#ffffff" stroke="#cbd5e1"/>
  <text x="1202" y="698" class="badge" fill="#94a3b8" text-anchor="middle">OPEN ▾</text>

  <!-- ============================================================= -->
  <!-- BOTTOM ACTION BAR — seal & per-side ready (secret)            -->
  <!-- ============================================================= -->
  <rect x="24" y="728" width="1232" height="56" rx="8" fill="#ffffff" stroke="#cbd5e1"/>
  <rect x="24" y="728" width="6" height="56" rx="3" fill="#334155"/>

  <text x="40" y="746" class="col">SIDE READY INDICATORS (SECRET)</text>
  <!-- Federation -->
  <rect x="40" y="752" width="230" height="24" rx="12" fill="#ecfdf5" stroke="#16a34a"/>
  <circle cx="56" cy="764" r="5" fill="#f59e0b"/>
  <text x="70" y="768" font-size="11" font-weight="600" fill="#166534">FEDERATION — 2 / 3 ships ready</text>
  <!-- Klingon (sealed / hidden) -->
  <rect x="282" y="752" width="230" height="24" rx="12" fill="#fef2f2" stroke="#C74634"/>
  <g transform="translate(296,757)" fill="#991b1b" stroke="#991b1b">
    <rect x="0" y="4" width="9" height="7" rx="1.5" stroke="none"/>
    <path d="M1.7 4 V2.4 A2.8 2.8 0 0 1 7.3 2.4 V4" fill="none" stroke-width="1.3"/>
  </g>
  <text x="314" y="768" font-size="11" font-weight="600" fill="#991b1b">KLINGON — SEALED</text>

  <text x="524" y="768" class="sub">Opponent sees only the lock badge (B3.5)</text>

  <!-- seal & submit -->
  <text x="1012" y="767" class="sub" text-anchor="end">secret &amp; final for this turn</text>
  <rect x="1024" y="742" width="216" height="40" rx="8" fill="#16a34a"/>
  <g transform="translate(1066,754)" fill="#ffffff" stroke="#ffffff">
    <rect x="0" y="5" width="11" height="9" rx="1.6" stroke="none"/>
    <path d="M2 5 V3 A3.4 3.4 0 0 1 9 3 V5" fill="none" stroke-width="1.6"/>
  </g>
  <text x="1092" y="767" font-size="14" font-weight="800" fill="#ffffff">SEAL &amp; SUBMIT</text>
</svg>
